<?xml version="1.0" standalone="no"?>
<!DOCTYPE svg PUBLIC "-//W3C//DTD SVG 20010904//EN"
 "http://www.w3.org/TR/2001/REC-SVG-20010904/DTD/svg10.dtd">
<svg version="1.0" xmlns="http://www.w3.org/2000/svg"
 width="533.000000pt" height="572.000000pt" viewBox="0 0 533.000000 572.000000"
 preserveAspectRatio="xMidYMid meet">

<g transform="translate(0.000000,572.000000) scale(0.100000,-0.100000)"
fill="#000000" stroke="none">
<path d="M1315 5514 c-16 -3 -78 -13 -136 -24 -450 -84 -803 -350 -883 -666
-14 -55 -16 -208 -16 -1296 0 -1366 -4 -1285 66 -1425 94 -187 287 -347 542
-450 59 -23 140 -50 179 -60 l73 -17 0 -320 c1 -383 8 -438 74 -572 132 -266
453 -469 861 -546 160 -30 476 -32 630 -4 511 93 869 363 939 708 11 51 16
131 16 234 l0 157 41 -6 c61 -8 283 10 401 33 455 88 802 350 883 667 14 56
15 199 13 1320 l-3 1258 -28 69 c-41 104 -94 183 -177 267 -446 452 -1408 504
-1962 106 l-78 -56 -20 46 c-90 204 -339 400 -633 498 -192 64 -277 77 -527
80 -124 2 -238 1 -255 -1z m460 -309 c471 -76 780 -348 701 -617 -22 -77 -87
-170 -160 -229 -77 -63 -254 -151 -368 -183 -528 -150 -1162 16 -1336 348 -23
45 -27 62 -27 146 0 118 20 163 116 265 128 135 355 238 604 274 100 14 371
12 470 -4z m2108 -296 c291 -25 549 -130 699 -283 78 -80 112 -152 116 -246 6
-129 -49 -232 -178 -337 -260 -211 -735 -289 -1141 -188 -278 69 -482 207
-561 381 -35 75 -32 190 5 266 108 220 426 379 822 411 83 7 123 7 238 -4z
m-3111 -920 c242 -122 519 -177 837 -166 312 11 580 90 805 237 l78 51 -4
-178 c-3 -170 -4 -181 -31 -237 -36 -79 -85 -136 -166 -197 -183 -139 -457
-219 -751 -219 -157 0 -253 11 -387 45 -247 63 -452 196 -534 347 l-34 63 -3
187 -4 187 69 -45 c37 -25 93 -59 125 -75z m2098 -240 c486 -320 1285 -317
1763 6 l69 46 -4 -188 c-3 -184 -4 -189 -32 -242 -98 -188 -365 -337 -691
-386 -116 -17 -305 -19 -424 -5 -80 11 -85 12 -148 67 -132 111 -272 188 -449
247 l-99 32 -30 60 c-29 58 -30 62 -33 237 -3 147 -1 177 10 170 7 -4 38 -24
68 -44z m-2222 -528 c158 -107 379 -189 600 -222 45 -7 82 -16 82 -20 0 -3 -8
-13 -17 -20 -53 -44 -142 -222 -158 -315 l-6 -42 -57 18 c-159 48 -300 129
-391 225 -99 105 -115 143 -119 293 -2 67 -1 122 2 122 4 0 32 -17 64 -39z
m1932 -151 c353 -43 656 -208 747 -407 40 -87 39 -185 -3 -273 -109 -228 -426
-384 -844 -415 -101 -8 -289 8 -410 35 -278 60 -507 205 -590 373 -70 143 -32
297 105 426 215 201 617 306 995 261z m2118 -260 c-3 -96 -6 -110 -37 -168
-122 -227 -497 -392 -891 -392 l-108 0 -4 193 c-3 105 -8 200 -12 210 -8 16 1
17 112 17 335 0 680 99 897 258 39 28 40 28 44 8 1 -12 1 -68 -1 -126z m-4043
-315 c114 -77 330 -168 451 -191 l34 -6 0 -204 c0 -171 -2 -204 -14 -204 -8 0
-48 12 -88 26 -216 77 -386 214 -439 353 -15 39 -19 77 -19 161 0 61 2 110 4
110 2 0 34 -20 71 -45z m4045 -379 c0 -110 -1 -116 -35 -184 -113 -225 -470
-394 -850 -402 -44 -1 -97 -2 -117 -1 l-38 1 0 210 0 210 123 0 c311 1 639 94
852 244 28 19 53 35 58 35 4 1 7 -50 7 -113z m-3181 -200 c201 -133 452 -212
750 -237 358 -30 763 66 1023 242 31 22 59 39 62 39 4 0 6 -69 6 -153 0 -223
-27 -297 -151 -411 -305 -282 -958 -349 -1395 -142 -176 84 -280 174 -338 296
-30 63 -31 69 -34 238 -3 94 -1 172 3 172 4 0 37 -20 74 -44z m-11 -835 c78
-52 220 -123 317 -156 480 -165 1083 -103 1458 149 37 25 70 46 72 46 12 0 4
-191 -11 -241 -88 -302 -601 -515 -1105 -459 -366 40 -664 198 -760 405 -28
59 -32 80 -37 181 -3 63 -2 114 2 114 4 0 33 -17 64 -39z"/>
</g>
</svg>
