<?xml version="1.0" standalone="no"?>
<!DOCTYPE svg PUBLIC "-//W3C//DTD SVG 20010904//EN"
 "http://www.w3.org/TR/2001/REC-SVG-20010904/DTD/svg10.dtd">
<svg version="1.0" xmlns="http://www.w3.org/2000/svg"
 width="586.000000pt" height="467.000000pt" viewBox="0 0 586.000000 467.000000"
 preserveAspectRatio="xMidYMid meet">

<g transform="translate(0.000000,467.000000) scale(0.100000,-0.100000)"
fill="#000000" stroke="none">
<path d="M2832 4440 c-161 -22 -342 -108 -432 -205 -59 -64 1 -60 -967 -65
l-883 -5 -27 -28 -28 -27 0 -225 0 -225 28 -27 c27 -28 30 -28 166 -31 l138
-3 -200 -559 -199 -558 -130 -4 c-128 -3 -130 -3 -154 -31 -67 -78 13 -317
140 -422 23 -19 72 -48 108 -65 97 -46 190 -52 638 -48 362 4 389 6 452 26
182 60 318 242 318 426 0 54 -3 66 -26 87 -24 22 -34 24 -153 27 l-127 4 -197
552 c-108 303 -197 555 -197 559 0 4 264 7 588 7 530 0 640 4 722 25 24 6 28
-1 83 -110 l57 -115 0 -1019 0 -1018 25 -77 c14 -42 25 -97 25 -121 0 -24 -11
-79 -25 -121 -22 -66 -25 -95 -25 -210 l0 -134 -187 0 c-104 0 -217 -5 -253
-11 -214 -34 -376 -207 -397 -425 -5 -57 -4 -63 25 -95 l30 -34 1162 0 1162 0
30 34 c29 33 30 37 24 98 -22 215 -185 389 -396 422 -36 6 -149 11 -251 11
l-187 0 -4 152 c-4 130 -8 160 -26 198 -30 63 -30 168 1 230 l22 45 5 1045 5
1045 54 105 c29 58 54 106 55 107 1 2 34 -4 72 -12 56 -12 180 -15 667 -15
328 0 597 -3 597 -7 0 -4 -89 -256 -197 -559 l-197 -552 -128 -4 c-123 -3
-129 -4 -154 -30 -23 -23 -26 -34 -25 -85 4 -194 133 -363 324 -426 57 -19 91
-21 447 -25 233 -2 422 0 479 7 106 12 193 47 266 107 129 105 208 343 141
421 -24 28 -26 28 -154 31 l-130 4 -199 558 -200 559 138 3 c136 3 139 3 166
31 l28 27 0 225 0 225 -28 27 -27 28 -889 5 -888 5 -34 28 c-19 15 -60 49 -91
75 -146 122 -381 188 -576 162z m221 -195 c93 -19 185 -67 265 -137 37 -32 96
-73 132 -91 l65 -32 833 -3 832 -2 0 -95 0 -95 -814 0 c-784 0 -816 1 -878 20
-67 20 -120 54 -199 125 -164 146 -417 177 -610 74 -32 -17 -87 -56 -121 -86
-81 -71 -129 -98 -203 -117 -51 -14 -169 -16 -867 -16 l-808 0 0 95 0 95 833
2 832 3 65 32 c36 18 95 59 132 91 148 129 326 177 511 137z m27 -396 c30 -15
83 -51 116 -80 l62 -53 -51 -103 -52 -103 -225 0 -225 0 -52 103 -51 103 64
54 c108 92 157 111 274 107 67 -2 97 -8 140 -28z m-1948 -908 c87 -245 158
-449 158 -453 0 -4 -148 -8 -330 -8 -181 0 -330 2 -330 5 0 5 305 863 322 905
8 18 12 21 16 10 3 -8 76 -215 164 -459z m3937 1 c88 -249 161 -454 161 -457
0 -8 -660 -6 -660 3 -1 19 326 920 331 914 4 -4 79 -211 168 -460z m-1949
-557 l0 -935 -190 0 -190 0 0 935 0 935 190 0 190 0 0 -935z m-1520 -104 c0
-18 -66 -96 -108 -127 -67 -52 -105 -55 -564 -52 -412 3 -413 3 -458 27 -58
30 -107 76 -131 124 l-19 37 640 0 c384 0 640 -4 640 -9z m3921 -28 c-24 -48
-73 -94 -131 -124 -45 -24 -46 -24 -459 -27 -453 -3 -488 0 -562 50 -40 27
-109 110 -109 131 0 4 288 7 640 7 l640 0 -19 -37z m-2446 -1088 l0 -95 -146
0 -145 0 0 95 0 95 145 0 146 0 0 -95z m45 -375 l0 -90 -190 0 -190 0 0 90 0
90 190 0 190 0 0 -90z m685 -312 c64 -33 135 -110 135 -145 0 -11 -197 -13
-1010 -13 -813 0 -1010 2 -1010 13 0 15 24 52 59 90 26 29 84 63 131 78 14 4
390 7 835 6 l810 -2 50 -27z"/>
</g>
</svg>
