<?xml version="1.0" standalone="no"?>
<!DOCTYPE svg PUBLIC "-//W3C//DTD SVG 20010904//EN"
 "http://www.w3.org/TR/2001/REC-SVG-20010904/DTD/svg10.dtd">
<svg version="1.0" xmlns="http://www.w3.org/2000/svg"
 width="620.000000pt" height="464.000000pt" viewBox="0 0 620.000000 464.000000"
 preserveAspectRatio="xMidYMid meet">

<g transform="translate(0.000000,464.000000) scale(0.100000,-0.100000)"
fill="#000000" stroke="none">
<path d="M2943 4505 c-17 -7 -36 -22 -42 -34 -7 -13 -11 -126 -11 -325 l0
-305 24 -28 c19 -22 32 -28 66 -28 34 0 47 6 66 28 l24 28 0 305 c0 200 -4
312 -11 326 -6 11 -26 26 -44 34 -40 16 -32 17 -72 -1z"/>
<path d="M1715 4015 c-31 -30 -34 -92 -7 -123 18 -20 335 -284 417 -347 70
-53 133 -46 160 19 27 64 16 76 -234 284 -216 178 -236 192 -272 192 -29 0
-47 -7 -64 -25z"/>
<path d="M3910 3849 c-133 -110 -235 -202 -241 -217 -12 -32 5 -87 34 -107 36
-25 81 -19 132 20 82 63 399 327 418 347 10 12 17 36 17 60 0 54 -34 88 -89
88 -37 0 -56 -14 -271 -191z"/>
<path d="M1025 3460 c-12 -4 -27 -16 -35 -25 -8 -10 -205 -394 -437 -853 -451
-891 -448 -885 -401 -930 13 -11 191 -107 395 -212 318 -163 377 -191 403
-185 36 8 67 43 99 112 l24 52 43 -30 43 -29 -26 -56 c-21 -47 -25 -66 -20
-111 14 -134 130 -272 297 -353 37 -18 49 -31 65 -68 22 -56 113 -150 169
-176 43 -20 101 -25 156 -14 33 8 36 6 64 -37 58 -92 148 -145 255 -151 63 -3
65 -3 100 -50 20 -26 62 -65 94 -88 49 -35 66 -41 122 -44 56 -4 73 0 130 27
42 19 87 52 125 89 l59 59 98 -79 c114 -92 173 -125 248 -139 154 -28 345 67
404 202 21 46 22 47 74 51 103 8 243 95 298 184 18 30 25 34 64 34 63 0 142
18 205 48 66 31 166 128 198 193 l22 46 65 5 c121 10 233 87 282 195 22 48 24
64 20 136 -2 45 -8 92 -12 103 -5 16 -2 23 12 27 10 2 43 16 74 30 l56 26 28
-72 c32 -82 56 -113 94 -122 36 -8 807 285 834 316 9 12 17 37 17 56 0 22
-124 347 -341 891 -188 471 -348 872 -357 891 -10 21 -28 39 -50 48 -35 14
-41 13 -436 -128 -261 -93 -409 -151 -423 -166 -30 -29 -30 -76 2 -147 14 -31
25 -61 25 -66 0 -5 -70 -31 -156 -59 l-157 -50 -251 99 c-138 54 -296 118
-351 141 -122 52 -232 63 -330 34 -61 -17 -180 -73 -226 -106 -27 -19 -27 -19
-92 15 -80 42 -144 53 -216 38 -75 -16 -146 -51 -373 -185 l-197 -117 -63 36
c-35 19 -67 39 -72 44 -5 5 7 41 28 85 42 89 45 124 14 159 -24 25 -725 386
-749 385 -8 0 -23 -4 -34 -9z m4269 -963 c165 -413 305 -766 312 -782 l12 -30
-281 -108 c-154 -59 -283 -104 -287 -100 -14 15 -633 1563 -628 1569 7 6 550
203 563 203 6 1 145 -338 309 -752z m-3935 617 c135 -70 248 -128 250 -130 3
-3 -705 -1490 -716 -1504 -8 -9 -538 269 -538 282 0 20 739 1478 749 1478 5 0
120 -57 255 -126z m2183 -318 c201 -80 379 -146 395 -146 15 0 109 27 207 60
99 33 181 58 181 57 16 -25 455 -1134 452 -1141 -3 -6 -46 -29 -96 -50 l-91
-39 -284 280 c-259 256 -288 282 -337 298 -168 55 -475 194 -747 338 -104 56
-174 87 -194 87 -21 0 -62 -20 -127 -61 -124 -79 -138 -93 -146 -143 -4 -22
-14 -54 -22 -71 -20 -40 -72 -95 -101 -106 -30 -12 -90 4 -126 32 -23 18 -26
27 -26 83 0 82 31 203 75 293 43 87 105 146 248 236 181 114 265 149 337 143
19 -2 200 -69 402 -150z m-1029 26 c-106 -104 -156 -196 -198 -362 -44 -174
-28 -314 46 -390 60 -61 130 -92 222 -98 102 -6 151 13 228 88 55 54 119 161
119 200 0 8 23 30 50 48 l50 32 173 -89 c184 -96 448 -214 615 -277 l103 -39
309 -305 c270 -266 310 -310 316 -342 14 -82 -36 -148 -128 -168 -107 -24
-135 -5 -495 343 -97 94 -183 169 -197 173 -36 9 -84 -13 -101 -47 -19 -35
-19 -53 -1 -87 14 -27 420 -417 508 -488 53 -43 52 -49 -9 -110 -66 -66 -163
-91 -236 -60 -18 7 -139 117 -269 245 -221 216 -239 231 -273 231 -51 0 -95
-44 -95 -97 -1 -37 8 -46 236 -269 l237 -230 -17 -26 c-40 -61 -150 -107 -221
-94 -35 7 -65 33 -226 192 -172 170 -188 184 -222 184 -48 0 -86 -34 -94 -83
l-6 -38 198 -198 c216 -218 216 -217 152 -265 -39 -28 -89 -46 -131 -46 -48 1
-102 31 -214 122 l-103 83 -2 95 c-3 106 -22 158 -80 212 -42 39 -123 78 -164
78 -31 0 -33 2 -33 33 0 18 -7 57 -16 87 -30 103 -163 200 -273 200 -36 0 -39
3 -55 44 -20 53 -88 118 -142 137 -21 7 -73 14 -114 14 -62 0 -85 -5 -132 -28
-32 -16 -61 -27 -65 -25 -4 2 -15 25 -24 51 -21 63 -60 103 -134 138 -109 52
-253 32 -324 -44 l-23 -26 -49 32 c-27 18 -49 36 -49 41 0 10 499 1057 510
1069 4 5 52 -17 107 -47 56 -31 112 -56 128 -56 19 0 103 45 244 129 284 169
326 191 379 191 l44 0 -59 -58z m-993 -1398 c26 -11 42 -24 46 -39 3 -13 -8
-67 -24 -121 -17 -55 -40 -132 -52 -172 l-21 -73 -30 18 c-46 27 -127 117
-135 149 -11 45 78 213 126 236 43 22 40 22 90 2z m510 -174 c11 -11 20 -26
20 -32 0 -25 -49 -117 -143 -269 -74 -119 -105 -160 -131 -174 -46 -25 -76
-11 -116 52 l-30 47 27 45 c14 25 52 84 84 131 135 201 155 220 227 220 29 0
48 -6 62 -20z m252 -180 c47 -13 88 -61 88 -103 0 -23 -29 -82 -96 -197 -53
-91 -101 -171 -106 -177 -6 -7 -26 -13 -46 -13 -29 0 -43 8 -79 45 -49 51 -62
88 -43 119 8 12 53 86 102 166 74 123 112 169 138 170 3 0 22 -5 42 -10z m313
-324 c104 -44 62 -215 -79 -317 -52 -38 -84 -37 -122 4 -62 66 -65 53 41 196
53 72 103 131 111 131 8 0 30 -6 49 -14z"/>
</g>
</svg>
